<svg width="32" height="40" viewBox="0 0 32 40" fill="none" xmlns="http://www.w3.org/2000/svg">
<path d="M12.39 4.3625C12.5525 2.025 14.77 0.217502 17.16 0.812502L17.8125 0.977502C18.97 1.2675 19.9975 2.1175 20.3425 3.39C20.8925 5.43 21.675 9.6675 20.4975 14.665C20.8657 14.6141 21.2349 14.5716 21.605 14.5375C23.3875 14.375 25.7775 14.3575 27.895 15.0625C29.19 15.495 30.38 16.765 30.895 18.245C31.355 19.575 31.295 21.15 30.31 22.5775C30.455 22.875 30.5675 23.1825 30.655 23.485C30.8475 24.16 30.9375 24.9025 30.9375 25.625C30.9375 26.3475 30.8475 27.09 30.655 27.765C30.5575 28.1025 30.43 28.4475 30.255 28.775C30.6775 29.7425 30.5225 30.8225 30.2475 31.645C29.966 32.4572 29.5539 33.218 29.0275 33.8975C29.1625 34.2775 29.2175 34.6775 29.2175 35.06C29.2175 35.8225 28.995 36.6225 28.585 37.34C27.75 38.805 26.0925 40 23.75 40H15C13.4875 40 12.325 39.7975 11.335 39.455C10.4837 39.1441 9.67026 38.7382 8.91 38.245L8.79 38.17C7.53 37.4025 6.2925 36.6475 3.62 36.365C1.705 36.16 0 34.615 0 32.5V22.5C0 20.375 1.7125 18.92 3.3925 18.4625C5.515 17.8825 7.3275 16.495 8.7225 14.9375C10.1225 13.37 11.0075 11.7375 11.32 10.84C11.8175 9.4025 12.21 6.9925 12.39 4.365V4.3625Z" fill="#FF9A62"/>
</svg>
