<svg width="40" height="40" viewBox="0 0 40 40" fill="none" xmlns="http://www.w3.org/2000/svg">
<path d="M20 40C8.95312 40 0 31.0469 0 20C0 8.95312 8.95312 0 20 0C31.0469 0 40 8.95312 40 20C40 31.0469 31.0469 40 20 40ZM18.125 9.375V20C18.125 20.625 18.4375 21.2109 18.9609 21.5625L26.4609 26.5625C27.3203 27.1406 28.4844 26.9062 29.0625 26.0391C29.6406 25.1719 29.4062 24.0156 28.5391 23.4375L21.875 19V9.375C21.875 8.33594 21.0391 7.5 20 7.5C18.9609 7.5 18.125 8.33594 18.125 9.375Z" fill="#FF9A62"/>
</svg>
